<svg preserveAspectRatio="none" width="20" height="20" viewBox="0 0 20 20" fill="none" xmlns="http://www.w3.org/2000/svg">
<g clip-path="url(#clip0_1_49)">
<path d="M12.2708 13.9813L8.36659 10.0399V4.79711H10.7463V9.07316L13.9812 12.2709L12.2708 13.9813ZM9.55645 0.037693C4.31365 0.037693 0.0376053 4.31373 0.0376053 9.55653C0.0376053 14.7993 4.31365 19.0754 9.55645 19.0754C14.7992 19.0754 19.0753 14.7993 19.0753 9.55653C19.0753 4.31373 14.7992 0.037693 9.55645 0.037693ZM9.55645 16.6957C5.61505 16.6957 2.41732 13.4979 2.41732 9.55653C2.41732 5.61514 5.61505 2.4174 9.55645 2.4174C13.4978 2.4174 16.6956 5.61514 16.6956 9.55653C16.6956 13.4979 13.4978 16.6957 9.55645 16.6957Z" fill="black"/>
</g>
<defs>
<clipPath id="clip0_1_49">
<rect width="19.0377" height="19.0377" fill="white" transform="matrix(1 0 0 -1 0.0376053 19.0754)"/>
</clipPath>
</defs>
</svg>
