<svg preserveAspectRatio="none" width="20" height="20" viewBox="0 0 20 20" fill="none" xmlns="http://www.w3.org/2000/svg">
<g clip-path="url(#clip0_1_57)">
<path d="M15.9146 0.037693H3.19803C1.45043 0.037693 0.0374756 1.45065 0.0374756 3.19825V15.9148C0.0374756 17.6624 1.45043 19.0754 3.19803 19.0754H15.9146C17.6622 19.0754 19.0752 17.6624 19.0752 15.9148V3.19825C19.0752 1.45065 17.6622 0.037693 15.9146 0.037693ZM6.13548 8.36668H12.9771C13.1259 8.73851 13.2002 9.14752 13.2002 9.55653C13.2002 11.5644 11.5642 13.1633 9.55632 13.1633C7.54844 13.1633 5.94957 11.5644 5.94957 9.55653C5.94957 9.14752 5.98675 8.73851 6.13548 8.36668ZM16.6954 8.36668V15.5058C16.6954 16.1751 16.1749 16.6957 15.5056 16.6957H3.60704C2.93775 16.6957 2.41719 16.1751 2.41719 15.5058V8.36668H4.27633C4.20197 8.73851 4.16479 9.14752 4.16479 9.55653C4.16479 12.5312 6.58168 14.9481 9.55632 14.9481C12.531 14.9481 14.985 12.5312 14.985 9.55653C14.985 9.14752 14.9107 8.73851 14.8363 8.36668H16.6954ZM16.6954 4.20219C16.6954 4.53683 16.4352 4.79711 16.1005 4.79711H14.9107C14.576 4.79711 14.3157 4.53683 14.3157 4.20219V3.01233C14.3157 2.67768 14.576 2.4174 14.9107 2.4174H16.1005C16.4352 2.4174 16.6954 2.67768 16.6954 3.01233V4.20219Z" fill="black"/>
</g>
<defs>
<clipPath id="clip0_1_57">
<rect width="19.0377" height="19.0377" fill="white" transform="matrix(1 0 0 -1 0.0374756 19.0754)"/>
</clipPath>
</defs>
</svg>
