<svg preserveAspectRatio="none" width="20" height="20" viewBox="0 0 20 20" fill="none" xmlns="http://www.w3.org/2000/svg">
<g clip-path="url(#clip0_1_59)">
<path d="M13.126 11.9362C11.9361 13.1261 11.9361 14.316 10.7462 14.316C9.55639 14.316 8.36654 13.1261 7.17668 11.9362C5.98683 10.7464 4.79697 9.55653 4.79697 8.36668C4.79697 7.17682 5.98683 7.17682 7.17668 5.98697C8.36654 4.79711 4.79697 1.22755 3.60712 1.22755C2.41726 1.22755 0.0375519 4.79711 0.0375519 4.79711C0.0375519 7.17682 2.49163 12.0106 4.79697 14.316C7.10232 16.6213 11.9361 19.0754 14.3158 19.0754C14.3158 19.0754 17.8854 16.6957 17.8854 15.5058C17.8854 14.316 14.3158 10.7464 13.126 11.9362Z" fill="black"/>
</g>
<defs>
<clipPath id="clip0_1_59">
<rect width="19.0377" height="19.0377" fill="white" transform="matrix(1 0 0 -1 0.0375519 19.0754)"/>
</clipPath>
</defs>
</svg>
